<?xml version="1.0" encoding="utf-8" standalone="no"?>
<!DOCTYPE svg PUBLIC "-//W3C//DTD SVG 1.1//EN"
  "http://www.w3.org/Graphics/SVG/1.1/DTD/svg11.dtd">
<svg xmlns:xlink="http://www.w3.org/1999/xlink" width="864pt" height="576pt" viewBox="0 0 864 576" xmlns="http://www.w3.org/2000/svg" version="1.1">
 <metadata>
  <rdf:RDF xmlns:dc="http://purl.org/dc/elements/1.1/" xmlns:cc="http://creativecommons.org/ns#" xmlns:rdf="http://www.w3.org/1999/02/22-rdf-syntax-ns#">
   <cc:Work>
    <dc:type rdf:resource="http://purl.org/dc/dcmitype/StillImage"/>
    <dc:date>2022-02-01T10:53:34.702651</dc:date>
    <dc:format>image/svg+xml</dc:format>
    <dc:creator>
     <cc:Agent>
      <dc:title>Matplotlib v3.5.1, https://matplotlib.org/</dc:title>
     </cc:Agent>
    </dc:creator>
   </cc:Work>
  </rdf:RDF>
 </metadata>
 <defs>
  <style type="text/css">*{stroke-linejoin: round; stroke-linecap: butt}</style>
 </defs>
 <g id="figure_1">
  <g id="patch_1">
   <path d="M 0 576 
L 864 576 
L 864 0 
L 0 0 
z
" style="fill: #ffffff"/>
  </g>
  <g id="axes_1">
   <g id="patch_2">
    <path d="M 108 512.64 
L 777.6 512.64 
L 777.6 69.12 
L 108 69.12 
z
" style="fill: #ffffff"/>
   </g>
   <g id="matplotlib.axis_1">
    <g id="xtick_1">
     <g id="line2d_1">
      <path d="M 138.436364 512.64 
L 138.436364 69.12 
" clip-path="url(#p220694a637)" style="fill: none; stroke-dasharray: 0.8,1.32; stroke-dashoffset: 0; stroke: #b0b0b0; stroke-width: 0.8"/>
     </g>
     <g id="line2d_2">
      <defs>
       <path id="mbf806d4069" d="M 0 0 
L 0 3.5 
" style="stroke: #000000; stroke-width: 0.8"/>
      </defs>
      <g>
       <use xlink:href="#mbf806d4069" x="138.436364" y="512.64" style="stroke: #000000; stroke-width: 0.8"/>
      </g>
     </g>
     <g id="text_1">
      <!-- 1955 -->
      <g transform="translate(125.711364 527.238438)scale(0.1 -0.1)">
       <defs>
        <path id="DejaVuSans-31" d="M 794 531 
L 1825 531 
L 1825 4091 
L 703 3866 
L 703 4441 
L 1819 4666 
L 2450 4666 
L 2450 531 
L 3481 531 
L 3481 0 
L 794 0 
L 794 531 
z
" transform="scale(0.015625)"/>
        <path id="DejaVuSans-39" d="M 703 97 
L 703 672 
Q 941 559 1184 500 
Q 1428 441 1663 441 
Q 2288 441 2617 861 
Q 2947 1281 2994 2138 
Q 2813 1869 2534 1725 
Q 2256 1581 1919 1581 
Q 1219 1581 811 2004 
Q 403 2428 403 3163 
Q 403 3881 828 4315 
Q 1253 4750 1959 4750 
Q 2769 4750 3195 4129 
Q 3622 3509 3622 2328 
Q 3622 1225 3098 567 
Q 2575 -91 1691 -91 
Q 1453 -91 1209 -44 
Q 966 3 703 97 
z
M 1959 2075 
Q 2384 2075 2632 2365 
Q 2881 2656 2881 3163 
Q 2881 3666 2632 3958 
Q 2384 4250 1959 4250 
Q 1534 4250 1286 3958 
Q 1038 3666 1038 3163 
Q 1038 2656 1286 2365 
Q 1534 2075 1959 2075 
z
" transform="scale(0.015625)"/>
        <path id="DejaVuSans-35" d="M 691 4666 
L 3169 4666 
L 3169 4134 
L 1269 4134 
L 1269 2991 
Q 1406 3038 1543 3061 
Q 1681 3084 1819 3084 
Q 2600 3084 3056 2656 
Q 3513 2228 3513 1497 
Q 3513 744 3044 326 
Q 2575 -91 1722 -91 
Q 1428 -91 1123 -41 
Q 819 9 494 109 
L 494 744 
Q 775 591 1075 516 
Q 1375 441 1709 441 
Q 2250 441 2565 725 
Q 2881 1009 2881 1497 
Q 2881 1984 2565 2268 
Q 2250 2553 1709 2553 
Q 1456 2553 1204 2497 
Q 953 2441 691 2322 
L 691 4666 
z
" transform="scale(0.015625)"/>
       </defs>
       <use xlink:href="#DejaVuSans-31"/>
       <use xlink:href="#DejaVuSans-39" x="63.623047"/>
       <use xlink:href="#DejaVuSans-35" x="127.246094"/>
       <use xlink:href="#DejaVuSans-35" x="190.869141"/>
      </g>
     </g>
    </g>
    <g id="xtick_2">
     <g id="line2d_3">
      <path d="M 262.216561 512.64 
L 262.216561 69.12 
" clip-path="url(#p220694a637)" style="fill: none; stroke-dasharray: 0.8,1.32; stroke-dashoffset: 0; stroke: #b0b0b0; stroke-width: 0.8"/>
     </g>
     <g id="line2d_4">
      <g>
       <use xlink:href="#mbf806d4069" x="262.216561" y="512.64" style="stroke: #000000; stroke-width: 0.8"/>
      </g>
     </g>
     <g id="text_2">
      <!-- 1956 -->
      <g transform="translate(249.491561 527.238438)scale(0.1 -0.1)">
       <defs>
        <path id="DejaVuSans-36" d="M 2113 2584 
Q 1688 2584 1439 2293 
Q 1191 2003 1191 1497 
Q 1191 994 1439 701 
Q 1688 409 2113 409 
Q 2538 409 2786 701 
Q 3034 994 3034 1497 
Q 3034 2003 2786 2293 
Q 2538 2584 2113 2584 
z
M 3366 4563 
L 3366 3988 
Q 3128 4100 2886 4159 
Q 2644 4219 2406 4219 
Q 1781 4219 1451 3797 
Q 1122 3375 1075 2522 
Q 1259 2794 1537 2939 
Q 1816 3084 2150 3084 
Q 2853 3084 3261 2657 
Q 3669 2231 3669 1497 
Q 3669 778 3244 343 
Q 2819 -91 2113 -91 
Q 1303 -91 875 529 
Q 447 1150 447 2328 
Q 447 3434 972 4092 
Q 1497 4750 2381 4750 
Q 2619 4750 2861 4703 
Q 3103 4656 3366 4563 
z
" transform="scale(0.015625)"/>
       </defs>
       <use xlink:href="#DejaVuSans-31"/>
       <use xlink:href="#DejaVuSans-39" x="63.623047"/>
       <use xlink:href="#DejaVuSans-35" x="127.246094"/>
       <use xlink:href="#DejaVuSans-36" x="190.869141"/>
      </g>
     </g>
    </g>
    <g id="xtick_3">
     <g id="line2d_5">
      <path d="M 386.335883 512.64 
L 386.335883 69.12 
" clip-path="url(#p220694a637)" style="fill: none; stroke-dasharray: 0.8,1.32; stroke-dashoffset: 0; stroke: #b0b0b0; stroke-width: 0.8"/>
     </g>
     <g id="line2d_6">
      <g>
       <use xlink:href="#mbf806d4069" x="386.335883" y="512.64" style="stroke: #000000; stroke-width: 0.8"/>
      </g>
     </g>
     <g id="text_3">
      <!-- 1957 -->
      <g transform="translate(373.610883 527.238438)scale(0.1 -0.1)">
       <defs>
        <path id="DejaVuSans-37" d="M 525 4666 
L 3525 4666 
L 3525 4397 
L 1831 0 
L 1172 0 
L 2766 4134 
L 525 4134 
L 525 4666 
z
" transform="scale(0.015625)"/>
       </defs>
       <use xlink:href="#DejaVuSans-31"/>
       <use xlink:href="#DejaVuSans-39" x="63.623047"/>
       <use xlink:href="#DejaVuSans-35" x="127.246094"/>
       <use xlink:href="#DejaVuSans-37" x="190.869141"/>
      </g>
     </g>
    </g>
    <g id="xtick_4">
     <g id="line2d_7">
      <path d="M 510.11608 512.64 
L 510.11608 69.12 
" clip-path="url(#p220694a637)" style="fill: none; stroke-dasharray: 0.8,1.32; stroke-dashoffset: 0; stroke: #b0b0b0; stroke-width: 0.8"/>
     </g>
     <g id="line2d_8">
      <g>
       <use xlink:href="#mbf806d4069" x="510.11608" y="512.64" style="stroke: #000000; stroke-width: 0.8"/>
      </g>
     </g>
     <g id="text_4">
      <!-- 1958 -->
      <g transform="translate(497.39108 527.238438)scale(0.1 -0.1)">
       <defs>
        <path id="DejaVuSans-38" d="M 2034 2216 
Q 1584 2216 1326 1975 
Q 1069 1734 1069 1313 
Q 1069 891 1326 650 
Q 1584 409 2034 409 
Q 2484 409 2743 651 
Q 3003 894 3003 1313 
Q 3003 1734 2745 1975 
Q 2488 2216 2034 2216 
z
M 1403 2484 
Q 997 2584 770 2862 
Q 544 3141 544 3541 
Q 544 4100 942 4425 
Q 1341 4750 2034 4750 
Q 2731 4750 3128 4425 
Q 3525 4100 3525 3541 
Q 3525 3141 3298 2862 
Q 3072 2584 2669 2484 
Q 3125 2378 3379 2068 
Q 3634 1759 3634 1313 
Q 3634 634 3220 271 
Q 2806 -91 2034 -91 
Q 1263 -91 848 271 
Q 434 634 434 1313 
Q 434 1759 690 2068 
Q 947 2378 1403 2484 
z
M 1172 3481 
Q 1172 3119 1398 2916 
Q 1625 2713 2034 2713 
Q 2441 2713 2670 2916 
Q 2900 3119 2900 3481 
Q 2900 3844 2670 4047 
Q 2441 4250 2034 4250 
Q 1625 4250 1398 4047 
Q 1172 3844 1172 3481 
z
" transform="scale(0.015625)"/>
       </defs>
       <use xlink:href="#DejaVuSans-31"/>
       <use xlink:href="#DejaVuSans-39" x="63.623047"/>
       <use xlink:href="#DejaVuSans-35" x="127.246094"/>
       <use xlink:href="#DejaVuSans-38" x="190.869141"/>
      </g>
     </g>
    </g>
    <g id="xtick_5">
     <g id="line2d_9">
      <path d="M 633.896278 512.64 
L 633.896278 69.12 
" clip-path="url(#p220694a637)" style="fill: none; stroke-dasharray: 0.8,1.32; stroke-dashoffset: 0; stroke: #b0b0b0; stroke-width: 0.8"/>
     </g>
     <g id="line2d_10">
      <g>
       <use xlink:href="#mbf806d4069" x="633.896278" y="512.64" style="stroke: #000000; stroke-width: 0.8"/>
      </g>
     </g>
     <g id="text_5">
      <!-- 1959 -->
      <g transform="translate(621.171278 527.238438)scale(0.1 -0.1)">
       <use xlink:href="#DejaVuSans-31"/>
       <use xlink:href="#DejaVuSans-39" x="63.623047"/>
       <use xlink:href="#DejaVuSans-35" x="127.246094"/>
       <use xlink:href="#DejaVuSans-39" x="190.869141"/>
      </g>
     </g>
    </g>
    <g id="xtick_6">
     <g id="line2d_11">
      <path d="M 757.676475 512.64 
L 757.676475 69.12 
" clip-path="url(#p220694a637)" style="fill: none; stroke-dasharray: 0.8,1.32; stroke-dashoffset: 0; stroke: #b0b0b0; stroke-width: 0.8"/>
     </g>
     <g id="line2d_12">
      <g>
       <use xlink:href="#mbf806d4069" x="757.676475" y="512.64" style="stroke: #000000; stroke-width: 0.8"/>
      </g>
     </g>
     <g id="text_6">
      <!-- 1960 -->
      <g transform="translate(744.951475 527.238438)scale(0.1 -0.1)">
       <defs>
        <path id="DejaVuSans-30" d="M 2034 4250 
Q 1547 4250 1301 3770 
Q 1056 3291 1056 2328 
Q 1056 1369 1301 889 
Q 1547 409 2034 409 
Q 2525 409 2770 889 
Q 3016 1369 3016 2328 
Q 3016 3291 2770 3770 
Q 2525 4250 2034 4250 
z
M 2034 4750 
Q 2819 4750 3233 4129 
Q 3647 3509 3647 2328 
Q 3647 1150 3233 529 
Q 2819 -91 2034 -91 
Q 1250 -91 836 529 
Q 422 1150 422 2328 
Q 422 3509 836 4129 
Q 1250 4750 2034 4750 
z
" transform="scale(0.015625)"/>
       </defs>
       <use xlink:href="#DejaVuSans-31"/>
       <use xlink:href="#DejaVuSans-39" x="63.623047"/>
       <use xlink:href="#DejaVuSans-36" x="127.246094"/>
       <use xlink:href="#DejaVuSans-30" x="190.869141"/>
      </g>
     </g>
    </g>
    <g id="text_7">
     <!-- Time -->
     <g transform="translate(430.566406 540.916563)scale(0.1 -0.1)">
      <defs>
       <path id="DejaVuSans-54" d="M -19 4666 
L 3928 4666 
L 3928 4134 
L 2272 4134 
L 2272 0 
L 1638 0 
L 1638 4134 
L -19 4134 
L -19 4666 
z
" transform="scale(0.015625)"/>
       <path id="DejaVuSans-69" d="M 603 3500 
L 1178 3500 
L 1178 0 
L 603 0 
L 603 3500 
z
M 603 4863 
L 1178 4863 
L 1178 4134 
L 603 4134 
L 603 4863 
z
" transform="scale(0.015625)"/>
       <path id="DejaVuSans-6d" d="M 3328 2828 
Q 3544 3216 3844 3400 
Q 4144 3584 4550 3584 
Q 5097 3584 5394 3201 
Q 5691 2819 5691 2113 
L 5691 0 
L 5113 0 
L 5113 2094 
Q 5113 2597 4934 2840 
Q 4756 3084 4391 3084 
Q 3944 3084 3684 2787 
Q 3425 2491 3425 1978 
L 3425 0 
L 2847 0 
L 2847 2094 
Q 2847 2600 2669 2842 
Q 2491 3084 2119 3084 
Q 1678 3084 1418 2786 
Q 1159 2488 1159 1978 
L 1159 0 
L 581 0 
L 581 3500 
L 1159 3500 
L 1159 2956 
Q 1356 3278 1631 3431 
Q 1906 3584 2284 3584 
Q 2666 3584 2933 3390 
Q 3200 3197 3328 2828 
z
" transform="scale(0.015625)"/>
       <path id="DejaVuSans-65" d="M 3597 1894 
L 3597 1613 
L 953 1613 
Q 991 1019 1311 708 
Q 1631 397 2203 397 
Q 2534 397 2845 478 
Q 3156 559 3463 722 
L 3463 178 
Q 3153 47 2828 -22 
Q 2503 -91 2169 -91 
Q 1331 -91 842 396 
Q 353 884 353 1716 
Q 353 2575 817 3079 
Q 1281 3584 2069 3584 
Q 2775 3584 3186 3129 
Q 3597 2675 3597 1894 
z
M 3022 2063 
Q 3016 2534 2758 2815 
Q 2500 3097 2075 3097 
Q 1594 3097 1305 2825 
Q 1016 2553 972 2059 
L 3022 2063 
z
" transform="scale(0.015625)"/>
      </defs>
      <use xlink:href="#DejaVuSans-54"/>
      <use xlink:href="#DejaVuSans-69" x="57.958984"/>
      <use xlink:href="#DejaVuSans-6d" x="85.742188"/>
      <use xlink:href="#DejaVuSans-65" x="183.154297"/>
     </g>
    </g>
   </g>
   <g id="matplotlib.axis_2">
    <g id="ytick_1">
     <g id="line2d_13">
      <path d="M 108 510.271401 
L 777.6 510.271401 
" clip-path="url(#p220694a637)" style="fill: none; stroke-dasharray: 0.8,1.32; stroke-dashoffset: 0; stroke: #b0b0b0; stroke-width: 0.8"/>
     </g>
     <g id="line2d_14">
      <defs>
       <path id="me853d24adf" d="M 0 0 
L -3.5 0 
" style="stroke: #000000; stroke-width: 0.8"/>
      </defs>
      <g>
       <use xlink:href="#me853d24adf" x="108" y="510.271401" style="stroke: #000000; stroke-width: 0.8"/>
      </g>
     </g>
     <g id="text_8">
      <!-- 600 -->
      <g transform="translate(81.9125 514.070619)scale(0.1 -0.1)">
       <use xlink:href="#DejaVuSans-36"/>
       <use xlink:href="#DejaVuSans-30" x="63.623047"/>
       <use xlink:href="#DejaVuSans-30" x="127.246094"/>
      </g>
     </g>
    </g>
    <g id="ytick_2">
     <g id="line2d_15">
      <path d="M 108 457.383034 
L 777.6 457.383034 
" clip-path="url(#p220694a637)" style="fill: none; stroke-dasharray: 0.8,1.32; stroke-dashoffset: 0; stroke: #b0b0b0; stroke-width: 0.8"/>
     </g>
     <g id="line2d_16">
      <g>
       <use xlink:href="#me853d24adf" x="108" y="457.383034" style="stroke: #000000; stroke-width: 0.8"/>
      </g>
     </g>
     <g id="text_9">
      <!-- 650 -->
      <g transform="translate(81.9125 461.182252)scale(0.1 -0.1)">
       <use xlink:href="#DejaVuSans-36"/>
       <use xlink:href="#DejaVuSans-35" x="63.623047"/>
       <use xlink:href="#DejaVuSans-30" x="127.246094"/>
      </g>
     </g>
    </g>
    <g id="ytick_3">
     <g id="line2d_17">
      <path d="M 108 404.494667 
L 777.6 404.494667 
" clip-path="url(#p220694a637)" style="fill: none; stroke-dasharray: 0.8,1.32; stroke-dashoffset: 0; stroke: #b0b0b0; stroke-width: 0.8"/>
     </g>
     <g id="line2d_18">
      <g>
       <use xlink:href="#me853d24adf" x="108" y="404.494667" style="stroke: #000000; stroke-width: 0.8"/>
      </g>
     </g>
     <g id="text_10">
      <!-- 700 -->
      <g transform="translate(81.9125 408.293886)scale(0.1 -0.1)">
       <use xlink:href="#DejaVuSans-37"/>
       <use xlink:href="#DejaVuSans-30" x="63.623047"/>
       <use xlink:href="#DejaVuSans-30" x="127.246094"/>
      </g>
     </g>
    </g>
    <g id="ytick_4">
     <g id="line2d_19">
      <path d="M 108 351.6063 
L 777.6 351.6063 
" clip-path="url(#p220694a637)" style="fill: none; stroke-dasharray: 0.8,1.32; stroke-dashoffset: 0; stroke: #b0b0b0; stroke-width: 0.8"/>
     </g>
     <g id="line2d_20">
      <g>
       <use xlink:href="#me853d24adf" x="108" y="351.6063" style="stroke: #000000; stroke-width: 0.8"/>
      </g>
     </g>
     <g id="text_11">
      <!-- 750 -->
      <g transform="translate(81.9125 355.405519)scale(0.1 -0.1)">
       <use xlink:href="#DejaVuSans-37"/>
       <use xlink:href="#DejaVuSans-35" x="63.623047"/>
       <use xlink:href="#DejaVuSans-30" x="127.246094"/>
      </g>
     </g>
    </g>
    <g id="ytick_5">
     <g id="line2d_21">
      <path d="M 108 298.717933 
L 777.6 298.717933 
" clip-path="url(#p220694a637)" style="fill: none; stroke-dasharray: 0.8,1.32; stroke-dashoffset: 0; stroke: #b0b0b0; stroke-width: 0.8"/>
     </g>
     <g id="line2d_22">
      <g>
       <use xlink:href="#me853d24adf" x="108" y="298.717933" style="stroke: #000000; stroke-width: 0.8"/>
      </g>
     </g>
     <g id="text_12">
      <!-- 800 -->
      <g transform="translate(81.9125 302.517152)scale(0.1 -0.1)">
       <use xlink:href="#DejaVuSans-38"/>
       <use xlink:href="#DejaVuSans-30" x="63.623047"/>
       <use xlink:href="#DejaVuSans-30" x="127.246094"/>
      </g>
     </g>
    </g>
    <g id="ytick_6">
     <g id="line2d_23">
      <path d="M 108 245.829566 
L 777.6 245.829566 
" clip-path="url(#p220694a637)" style="fill: none; stroke-dasharray: 0.8,1.32; stroke-dashoffset: 0; stroke: #b0b0b0; stroke-width: 0.8"/>
     </g>
     <g id="line2d_24">
      <g>
       <use xlink:href="#me853d24adf" x="108" y="245.829566" style="stroke: #000000; stroke-width: 0.8"/>
      </g>
     </g>
     <g id="text_13">
      <!-- 850 -->
      <g transform="translate(81.9125 249.628785)scale(0.1 -0.1)">
       <use xlink:href="#DejaVuSans-38"/>
       <use xlink:href="#DejaVuSans-35" x="63.623047"/>
       <use xlink:href="#DejaVuSans-30" x="127.246094"/>
      </g>
     </g>
    </g>
    <g id="ytick_7">
     <g id="line2d_25">
      <path d="M 108 192.941199 
L 777.6 192.941199 
" clip-path="url(#p220694a637)" style="fill: none; stroke-dasharray: 0.8,1.32; stroke-dashoffset: 0; stroke: #b0b0b0; stroke-width: 0.8"/>
     </g>
     <g id="line2d_26">
      <g>
       <use xlink:href="#me853d24adf" x="108" y="192.941199" style="stroke: #000000; stroke-width: 0.8"/>
      </g>
     </g>
     <g id="text_14">
      <!-- 900 -->
      <g transform="translate(81.9125 196.740418)scale(0.1 -0.1)">
       <use xlink:href="#DejaVuSans-39"/>
       <use xlink:href="#DejaVuSans-30" x="63.623047"/>
       <use xlink:href="#DejaVuSans-30" x="127.246094"/>
      </g>
     </g>
    </g>
    <g id="ytick_8">
     <g id="line2d_27">
      <path d="M 108 140.052832 
L 777.6 140.052832 
" clip-path="url(#p220694a637)" style="fill: none; stroke-dasharray: 0.8,1.32; stroke-dashoffset: 0; stroke: #b0b0b0; stroke-width: 0.8"/>
     </g>
     <g id="line2d_28">
      <g>
       <use xlink:href="#me853d24adf" x="108" y="140.052832" style="stroke: #000000; stroke-width: 0.8"/>
      </g>
     </g>
     <g id="text_15">
      <!-- 950 -->
      <g transform="translate(81.9125 143.852051)scale(0.1 -0.1)">
       <use xlink:href="#DejaVuSans-39"/>
       <use xlink:href="#DejaVuSans-35" x="63.623047"/>
       <use xlink:href="#DejaVuSans-30" x="127.246094"/>
      </g>
     </g>
    </g>
    <g id="ytick_9">
     <g id="line2d_29">
      <path d="M 108 87.164465 
L 777.6 87.164465 
" clip-path="url(#p220694a637)" style="fill: none; stroke-dasharray: 0.8,1.32; stroke-dashoffset: 0; stroke: #b0b0b0; stroke-width: 0.8"/>
     </g>
     <g id="line2d_30">
      <g>
       <use xlink:href="#me853d24adf" x="108" y="87.164465" style="stroke: #000000; stroke-width: 0.8"/>
      </g>
     </g>
     <g id="text_16">
      <!-- 1000 -->
      <g transform="translate(75.55 90.963684)scale(0.1 -0.1)">
       <use xlink:href="#DejaVuSans-31"/>
       <use xlink:href="#DejaVuSans-30" x="63.623047"/>
       <use xlink:href="#DejaVuSans-30" x="127.246094"/>
       <use xlink:href="#DejaVuSans-30" x="190.869141"/>
      </g>
     </g>
    </g>
    <g id="text_17">
     <!-- Monthly total sales -->
     <g transform="translate(69.470312 338.249531)rotate(-90)scale(0.1 -0.1)">
      <defs>
       <path id="DejaVuSans-4d" d="M 628 4666 
L 1569 4666 
L 2759 1491 
L 3956 4666 
L 4897 4666 
L 4897 0 
L 4281 0 
L 4281 4097 
L 3078 897 
L 2444 897 
L 1241 4097 
L 1241 0 
L 628 0 
L 628 4666 
z
" transform="scale(0.015625)"/>
       <path id="DejaVuSans-6f" d="M 1959 3097 
Q 1497 3097 1228 2736 
Q 959 2375 959 1747 
Q 959 1119 1226 758 
Q 1494 397 1959 397 
Q 2419 397 2687 759 
Q 2956 1122 2956 1747 
Q 2956 2369 2687 2733 
Q 2419 3097 1959 3097 
z
M 1959 3584 
Q 2709 3584 3137 3096 
Q 3566 2609 3566 1747 
Q 3566 888 3137 398 
Q 2709 -91 1959 -91 
Q 1206 -91 779 398 
Q 353 888 353 1747 
Q 353 2609 779 3096 
Q 1206 3584 1959 3584 
z
" transform="scale(0.015625)"/>
       <path id="DejaVuSans-6e" d="M 3513 2113 
L 3513 0 
L 2938 0 
L 2938 2094 
Q 2938 2591 2744 2837 
Q 2550 3084 2163 3084 
Q 1697 3084 1428 2787 
Q 1159 2491 1159 1978 
L 1159 0 
L 581 0 
L 581 3500 
L 1159 3500 
L 1159 2956 
Q 1366 3272 1645 3428 
Q 1925 3584 2291 3584 
Q 2894 3584 3203 3211 
Q 3513 2838 3513 2113 
z
" transform="scale(0.015625)"/>
       <path id="DejaVuSans-74" d="M 1172 4494 
L 1172 3500 
L 2356 3500 
L 2356 3053 
L 1172 3053 
L 1172 1153 
Q 1172 725 1289 603 
Q 1406 481 1766 481 
L 2356 481 
L 2356 0 
L 1766 0 
Q 1100 0 847 248 
Q 594 497 594 1153 
L 594 3053 
L 172 3053 
L 172 3500 
L 594 3500 
L 594 4494 
L 1172 4494 
z
" transform="scale(0.015625)"/>
       <path id="DejaVuSans-68" d="M 3513 2113 
L 3513 0 
L 2938 0 
L 2938 2094 
Q 2938 2591 2744 2837 
Q 2550 3084 2163 3084 
Q 1697 3084 1428 2787 
Q 1159 2491 1159 1978 
L 1159 0 
L 581 0 
L 581 4863 
L 1159 4863 
L 1159 2956 
Q 1366 3272 1645 3428 
Q 1925 3584 2291 3584 
Q 2894 3584 3203 3211 
Q 3513 2838 3513 2113 
z
" transform="scale(0.015625)"/>
       <path id="DejaVuSans-6c" d="M 603 4863 
L 1178 4863 
L 1178 0 
L 603 0 
L 603 4863 
z
" transform="scale(0.015625)"/>
       <path id="DejaVuSans-79" d="M 2059 -325 
Q 1816 -950 1584 -1140 
Q 1353 -1331 966 -1331 
L 506 -1331 
L 506 -850 
L 844 -850 
Q 1081 -850 1212 -737 
Q 1344 -625 1503 -206 
L 1606 56 
L 191 3500 
L 800 3500 
L 1894 763 
L 2988 3500 
L 3597 3500 
L 2059 -325 
z
" transform="scale(0.015625)"/>
       <path id="DejaVuSans-20" transform="scale(0.015625)"/>
       <path id="DejaVuSans-61" d="M 2194 1759 
Q 1497 1759 1228 1600 
Q 959 1441 959 1056 
Q 959 750 1161 570 
Q 1363 391 1709 391 
Q 2188 391 2477 730 
Q 2766 1069 2766 1631 
L 2766 1759 
L 2194 1759 
z
M 3341 1997 
L 3341 0 
L 2766 0 
L 2766 531 
Q 2569 213 2275 61 
Q 1981 -91 1556 -91 
Q 1019 -91 701 211 
Q 384 513 384 1019 
Q 384 1609 779 1909 
Q 1175 2209 1959 2209 
L 2766 2209 
L 2766 2266 
Q 2766 2663 2505 2880 
Q 2244 3097 1772 3097 
Q 1472 3097 1187 3025 
Q 903 2953 641 2809 
L 641 3341 
Q 956 3463 1253 3523 
Q 1550 3584 1831 3584 
Q 2591 3584 2966 3190 
Q 3341 2797 3341 1997 
z
" transform="scale(0.015625)"/>
       <path id="DejaVuSans-73" d="M 2834 3397 
L 2834 2853 
Q 2591 2978 2328 3040 
Q 2066 3103 1784 3103 
Q 1356 3103 1142 2972 
Q 928 2841 928 2578 
Q 928 2378 1081 2264 
Q 1234 2150 1697 2047 
L 1894 2003 
Q 2506 1872 2764 1633 
Q 3022 1394 3022 966 
Q 3022 478 2636 193 
Q 2250 -91 1575 -91 
Q 1294 -91 989 -36 
Q 684 19 347 128 
L 347 722 
Q 666 556 975 473 
Q 1284 391 1588 391 
Q 1994 391 2212 530 
Q 2431 669 2431 922 
Q 2431 1156 2273 1281 
Q 2116 1406 1581 1522 
L 1381 1569 
Q 847 1681 609 1914 
Q 372 2147 372 2553 
Q 372 3047 722 3315 
Q 1072 3584 1716 3584 
Q 2034 3584 2315 3537 
Q 2597 3491 2834 3397 
z
" transform="scale(0.015625)"/>
      </defs>
      <use xlink:href="#DejaVuSans-4d"/>
      <use xlink:href="#DejaVuSans-6f" x="86.279297"/>
      <use xlink:href="#DejaVuSans-6e" x="147.460938"/>
      <use xlink:href="#DejaVuSans-74" x="210.839844"/>
      <use xlink:href="#DejaVuSans-68" x="250.048828"/>
      <use xlink:href="#DejaVuSans-6c" x="313.427734"/>
      <use xlink:href="#DejaVuSans-79" x="341.210938"/>
      <use xlink:href="#DejaVuSans-20" x="400.390625"/>
      <use xlink:href="#DejaVuSans-74" x="432.177734"/>
      <use xlink:href="#DejaVuSans-6f" x="471.386719"/>
      <use xlink:href="#DejaVuSans-74" x="532.568359"/>
      <use xlink:href="#DejaVuSans-61" x="571.777344"/>
      <use xlink:href="#DejaVuSans-6c" x="633.056641"/>
      <use xlink:href="#DejaVuSans-20" x="660.839844"/>
      <use xlink:href="#DejaVuSans-73" x="692.626953"/>
      <use xlink:href="#DejaVuSans-61" x="744.726562"/>
      <use xlink:href="#DejaVuSans-6c" x="806.005859"/>
      <use xlink:href="#DejaVuSans-65" x="833.789062"/>
      <use xlink:href="#DejaVuSans-73" x="895.3125"/>
     </g>
    </g>
   </g>
   <g id="line2d_31">
    <defs>
     <path id="md17bb8f069" d="M 0 2 
C 0.530406 2 1.03916 1.789267 1.414214 1.414214 
C 1.789267 1.03916 2 0.530406 2 0 
C 2 -0.530406 1.789267 -1.03916 1.414214 -1.414214 
C 1.03916 -1.789267 0.530406 -2 0 -2 
C -0.530406 -2 -1.03916 -1.789267 -1.414214 -1.414214 
C -1.789267 -1.03916 -2 -0.530406 -2 0 
C -2 0.530406 -1.789267 1.03916 -1.414214 1.414214 
C -1.03916 1.789267 -0.530406 2 0 2 
z
" style="stroke: #000000"/>
    </defs>
    <g clip-path="url(#p220694a637)">
     <use xlink:href="#md17bb8f069" x="138.436364" y="489.116054" style="fill-opacity: 0; stroke: #000000"/>
     <use xlink:href="#md17bb8f069" x="148.949202" y="475.365078" style="fill-opacity: 0; stroke: #000000"/>
     <use xlink:href="#md17bb8f069" x="158.44467" y="455.267499" style="fill-opacity: 0; stroke: #000000"/>
     <use xlink:href="#md17bb8f069" x="168.957508" y="455.267499" style="fill-opacity: 0; stroke: #000000"/>
     <use xlink:href="#md17bb8f069" x="179.131223" y="445.747593" style="fill-opacity: 0; stroke: #000000"/>
     <use xlink:href="#md17bb8f069" x="189.644062" y="422.476712" style="fill-opacity: 0; stroke: #000000"/>
     <use xlink:href="#md17bb8f069" x="199.817777" y="411.899038" style="fill-opacity: 0; stroke: #000000"/>
     <use xlink:href="#md17bb8f069" x="210.330615" y="388.628157" style="fill-opacity: 0; stroke: #000000"/>
     <use xlink:href="#md17bb8f069" x="220.843454" y="359.010671" style="fill-opacity: 0; stroke: #000000"/>
     <use xlink:href="#md17bb8f069" x="231.017169" y="359.010671" style="fill-opacity: 0; stroke: #000000"/>
     <use xlink:href="#md17bb8f069" x="241.530008" y="349.490765" style="fill-opacity: 0; stroke: #000000"/>
     <use xlink:href="#md17bb8f069" x="251.703722" y="224.674219" style="fill-opacity: 0; stroke: #000000"/>
     <use xlink:href="#md17bb8f069" x="262.216561" y="315.64221" style="fill-opacity: 0; stroke: #000000"/>
     <use xlink:href="#md17bb8f069" x="272.7294" y="335.73979" style="fill-opacity: 0; stroke: #000000"/>
     <use xlink:href="#md17bb8f069" x="282.563991" y="345.259696" style="fill-opacity: 0; stroke: #000000"/>
     <use xlink:href="#md17bb8f069" x="293.07683" y="325.162116" style="fill-opacity: 0; stroke: #000000"/>
     <use xlink:href="#md17bb8f069" x="303.250544" y="359.010671" style="fill-opacity: 0; stroke: #000000"/>
     <use xlink:href="#md17bb8f069" x="313.763383" y="368.530577" style="fill-opacity: 0; stroke: #000000"/>
     <use xlink:href="#md17bb8f069" x="323.937098" y="335.73979" style="fill-opacity: 0; stroke: #000000"/>
     <use xlink:href="#md17bb8f069" x="334.449937" y="368.530577" style="fill-opacity: 0; stroke: #000000"/>
     <use xlink:href="#md17bb8f069" x="344.962775" y="349.490765" style="fill-opacity: 0; stroke: #000000"/>
     <use xlink:href="#md17bb8f069" x="355.13649" y="306.122304" style="fill-opacity: 0; stroke: #000000"/>
     <use xlink:href="#md17bb8f069" x="365.649329" y="345.259696" style="fill-opacity: 0; stroke: #000000"/>
     <use xlink:href="#md17bb8f069" x="375.823044" y="315.64221" style="fill-opacity: 0; stroke: #000000"/>
     <use xlink:href="#md17bb8f069" x="386.335883" y="181.305758" style="fill-opacity: 0; stroke: #000000"/>
     <use xlink:href="#md17bb8f069" x="396.848721" y="243.714031" style="fill-opacity: 0; stroke: #000000"/>
     <use xlink:href="#md17bb8f069" x="406.344188" y="215.154313" style="fill-opacity: 0; stroke: #000000"/>
     <use xlink:href="#md17bb8f069" x="416.857027" y="215.154313" style="fill-opacity: 0; stroke: #000000"/>
     <use xlink:href="#md17bb8f069" x="427.030742" y="268.04268" style="fill-opacity: 0; stroke: #000000"/>
     <use xlink:href="#md17bb8f069" x="437.543581" y="243.714031" style="fill-opacity: 0; stroke: #000000"/>
     <use xlink:href="#md17bb8f069" x="447.717296" y="219.385383" style="fill-opacity: 0; stroke: #000000"/>
     <use xlink:href="#md17bb8f069" x="458.230134" y="243.714031" style="fill-opacity: 0; stroke: #000000"/>
     <use xlink:href="#md17bb8f069" x="468.742973" y="215.154313" style="fill-opacity: 0; stroke: #000000"/>
     <use xlink:href="#md17bb8f069" x="478.916688" y="243.714031" style="fill-opacity: 0; stroke: #000000"/>
     <use xlink:href="#md17bb8f069" x="489.429526" y="224.674219" style="fill-opacity: 0; stroke: #000000"/>
     <use xlink:href="#md17bb8f069" x="499.603241" y="243.714031" style="fill-opacity: 0; stroke: #000000"/>
     <use xlink:href="#md17bb8f069" x="510.11608" y="128.417392" style="fill-opacity: 0; stroke: #000000"/>
     <use xlink:href="#md17bb8f069" x="520.628919" y="123.128555" style="fill-opacity: 0; stroke: #000000"/>
     <use xlink:href="#md17bb8f069" x="530.124386" y="162.265946" style="fill-opacity: 0; stroke: #000000"/>
     <use xlink:href="#md17bb8f069" x="540.637225" y="108.319812" style="fill-opacity: 0; stroke: #000000"/>
     <use xlink:href="#md17bb8f069" x="550.810939" y="147.457204" style="fill-opacity: 0; stroke: #000000"/>
     <use xlink:href="#md17bb8f069" x="561.323778" y="108.319812" style="fill-opacity: 0; stroke: #000000"/>
     <use xlink:href="#md17bb8f069" x="571.497493" y="89.28" style="fill-opacity: 0; stroke: #000000"/>
     <use xlink:href="#md17bb8f069" x="582.010332" y="151.688273" style="fill-opacity: 0; stroke: #000000"/>
     <use xlink:href="#md17bb8f069" x="592.52317" y="132.648461" style="fill-opacity: 0; stroke: #000000"/>
     <use xlink:href="#md17bb8f069" x="602.696885" y="162.265946" style="fill-opacity: 0; stroke: #000000"/>
     <use xlink:href="#md17bb8f069" x="613.209724" y="190.825664" style="fill-opacity: 0; stroke: #000000"/>
     <use xlink:href="#md17bb8f069" x="623.383439" y="171.785852" style="fill-opacity: 0; stroke: #000000"/>
     <use xlink:href="#md17bb8f069" x="633.896278" y="137.937298" style="fill-opacity: 0; stroke: #000000"/>
     <use xlink:href="#md17bb8f069" x="644.409116" y="181.305758" style="fill-opacity: 0; stroke: #000000"/>
     <use xlink:href="#md17bb8f069" x="653.904583" y="200.345571" style="fill-opacity: 0; stroke: #000000"/>
     <use xlink:href="#md17bb8f069" x="664.417422" y="234.194125" style="fill-opacity: 0; stroke: #000000"/>
     <use xlink:href="#md17bb8f069" x="674.591137" y="205.634407" style="fill-opacity: 0; stroke: #000000"/>
     <use xlink:href="#md17bb8f069" x="685.103976" y="224.674219" style="fill-opacity: 0; stroke: #000000"/>
     <use xlink:href="#md17bb8f069" x="695.277691" y="162.265946" style="fill-opacity: 0; stroke: #000000"/>
     <use xlink:href="#md17bb8f069" x="705.790529" y="176.016922" style="fill-opacity: 0; stroke: #000000"/>
     <use xlink:href="#md17bb8f069" x="716.303368" y="205.634407" style="fill-opacity: 0; stroke: #000000"/>
     <use xlink:href="#md17bb8f069" x="726.477083" y="234.194125" style="fill-opacity: 0; stroke: #000000"/>
     <use xlink:href="#md17bb8f069" x="736.989921" y="205.634407" style="fill-opacity: 0; stroke: #000000"/>
     <use xlink:href="#md17bb8f069" x="747.163636" y="224.674219" style="fill-opacity: 0; stroke: #000000"/>
    </g>
   </g>
   <g id="line2d_32">
    <path d="M 138.436364 489.378094 
L 148.949202 475.757948 
L 158.44467 462.056193 
L 168.957508 450.727115 
L 179.131223 437.003308 
L 189.644062 421.375998 
L 199.817777 405.79372 
L 210.330615 389.679512 
L 220.843454 373.937849 
L 231.017169 359.713169 
L 241.530008 345.551325 
L 251.703722 332.125884 
L 262.216561 332.276215 
L 272.7294 335.481135 
L 282.563991 338.571317 
L 293.07683 340.213929 
L 303.250544 343.593553 
L 313.763383 344.47746 
L 323.937098 342.66954 
L 334.449937 341.594191 
L 344.962775 338.447235 
L 355.13649 334.784502 
L 365.649329 333.305045 
L 375.823044 331.236724 
L 386.335883 237.679703 
L 396.848721 237.496127 
L 406.344188 235.813028 
L 416.857027 235.708786 
L 427.030742 236.657686 
L 437.543581 236.147045 
L 447.717296 235.374141 
L 458.230134 235.328104 
L 468.742973 234.983515 
L 478.916688 235.462892 
L 489.429526 235.647783 
L 499.603241 236.269685 
L 510.11608 120.083795 
L 520.628919 123.496094 
L 530.124386 126.976584 
L 540.637225 129.255886 
L 550.810939 132.272681 
L 561.323778 134.636574 
L 571.497493 138.262979 
L 582.010332 144.233742 
L 592.52317 149.88291 
L 602.696885 156.274345 
L 613.209724 162.354425 
L 623.383439 167.222824 
L 633.896278 171.895279 
L 644.409116 177.828614 
L 653.904583 183.574491 
L 664.417422 188.674181 
L 674.591137 192.184852 
L 685.103976 195.259965 
L 695.277691 197.409333 
L 705.790529 200.716464 
L 716.303368 204.807789 
L 726.477083 208.879984 
L 736.989921 212.210956 
L 747.163636 215.754487 
" clip-path="url(#p220694a637)" style="fill: none; stroke: #0000ff; stroke-width: 1.5; stroke-linecap: square"/>
   </g>
   <g id="line2d_33">
    <path d="M 138.436364 492.48 
L 148.949202 479.181698 
L 158.44467 466.006223 
L 168.957508 455.376536 
L 179.131223 441.453966 
L 189.644062 425.993521 
L 199.817777 410.434049 
L 210.330615 394.844507 
L 220.843454 379.944162 
L 231.017169 366.558066 
L 241.530008 353.943556 
L 251.703722 343.821051 
L 262.216561 342.310657 
L 272.7294 344.855454 
L 282.563991 347.63772 
L 293.07683 349.083817 
L 303.250544 352.741614 
L 313.763383 353.709883 
L 323.937098 352.195651 
L 334.449937 351.339114 
L 344.962775 348.722733 
L 355.13649 345.96359 
L 365.649329 344.827143 
L 375.823044 343.492446 
L 386.335883 250.711256 
L 396.848721 249.963839 
L 406.344188 247.503324 
L 416.857027 246.900693 
L 427.030742 247.631654 
L 437.543581 246.650226 
L 447.717296 245.505358 
L 458.230134 245.104226 
L 468.742973 244.39436 
L 478.916688 244.430971 
L 489.429526 244.020268 
L 499.603241 243.854312 
L 510.11608 131.045977 
L 520.628919 133.990453 
L 530.124386 137.40529 
L 540.637225 139.739485 
L 550.810939 142.940953 
L 561.323778 145.564834 
L 571.497493 149.473643 
L 582.010332 155.642448 
L 592.52317 161.379745 
L 602.696885 167.942548 
L 613.209724 174.176373 
L 623.383439 179.018054 
L 633.896278 183.727864 
L 644.409116 189.727982 
L 653.904583 195.624123 
L 664.417422 200.938323 
L 674.591137 204.586051 
L 685.103976 207.960242 
L 695.277691 210.596872 
L 705.790529 214.435508 
L 716.303368 219.271783 
L 726.477083 224.422766 
L 736.989921 229.194289 
L 747.163636 234.628258 
" clip-path="url(#p220694a637)" style="fill: none; stroke-dasharray: 5.55,2.4; stroke-dashoffset: 0; stroke: #0000ff; stroke-width: 1.5"/>
   </g>
   <g id="line2d_34">
    <path d="M 138.436364 486.276189 
L 148.949202 472.334198 
L 158.44467 458.106162 
L 168.957508 446.077694 
L 179.131223 432.55265 
L 189.644062 416.758475 
L 199.817777 401.153391 
L 210.330615 384.514516 
L 220.843454 367.931537 
L 231.017169 352.868273 
L 241.530008 337.159093 
L 251.703722 320.430716 
L 262.216561 322.241774 
L 272.7294 326.106816 
L 282.563991 329.504915 
L 293.07683 331.34404 
L 303.250544 334.445492 
L 313.763383 335.245037 
L 323.937098 333.143428 
L 334.449937 331.849269 
L 344.962775 328.171738 
L 355.13649 323.605415 
L 365.649329 321.782947 
L 375.823044 318.981002 
L 386.335883 224.64815 
L 396.848721 225.028416 
L 406.344188 224.122732 
L 416.857027 224.516878 
L 427.030742 225.683719 
L 437.543581 225.643864 
L 447.717296 225.242924 
L 458.230134 225.551982 
L 468.742973 225.57267 
L 478.916688 226.494814 
L 489.429526 227.275297 
L 499.603241 228.685057 
L 510.11608 109.121614 
L 520.628919 113.001735 
L 530.124386 116.547879 
L 540.637225 118.772288 
L 550.810939 121.604409 
L 561.323778 123.708314 
L 571.497493 127.052316 
L 582.010332 132.825036 
L 592.52317 138.386074 
L 602.696885 144.606142 
L 613.209724 150.532477 
L 623.383439 155.427594 
L 633.896278 160.062694 
L 644.409116 165.929247 
L 653.904583 171.524858 
L 664.417422 176.410038 
L 674.591137 179.783654 
L 685.103976 182.559688 
L 695.277691 184.221795 
L 705.790529 186.99742 
L 716.303368 190.343795 
L 726.477083 193.337203 
L 736.989921 195.227622 
L 747.163636 196.880715 
" clip-path="url(#p220694a637)" style="fill: none; stroke-dasharray: 5.55,2.4; stroke-dashoffset: 0; stroke: #0000ff; stroke-width: 1.5"/>
   </g>
   <g id="patch_3">
    <path d="M 108 512.64 
L 108 69.12 
" style="fill: none; stroke: #000000; stroke-width: 0.8; stroke-linejoin: miter; stroke-linecap: square"/>
   </g>
   <g id="patch_4">
    <path d="M 777.6 512.64 
L 777.6 69.12 
" style="fill: none; stroke: #000000; stroke-width: 0.8; stroke-linejoin: miter; stroke-linecap: square"/>
   </g>
   <g id="patch_5">
    <path d="M 108 512.64 
L 777.6 512.64 
" style="fill: none; stroke: #000000; stroke-width: 0.8; stroke-linejoin: miter; stroke-linecap: square"/>
   </g>
   <g id="patch_6">
    <path d="M 108 69.12 
L 777.6 69.12 
" style="fill: none; stroke: #000000; stroke-width: 0.8; stroke-linejoin: miter; stroke-linecap: square"/>
   </g>
  </g>
 </g>
 <defs>
  <clipPath id="p220694a637">
   <rect x="108" y="69.12" width="669.6" height="443.52"/>
  </clipPath>
 </defs>
</svg>
